<svg width="161" height="24" viewBox="0 0 161 24" fill="none" xmlns="http://www.w3.org/2000/svg">
<path d="M8.44 19.24C6.98667 19.24 5.67333 18.9267 4.5 18.3C3.34 17.6733 2.42667 16.8133 1.76 15.72C1.10667 14.6133 0.78 13.3733 0.78 12C0.78 10.6267 1.10667 9.39333 1.76 8.3C2.42667 7.19333 3.34 6.32667 4.5 5.7C5.67333 5.07333 6.98667 4.76 8.44 4.76C9.89333 4.76 11.2 5.07333 12.36 5.7C13.52 6.32667 14.4333 7.19333 15.1 8.3C15.7667 9.39333 16.1 10.6267 16.1 12C16.1 13.3733 15.7667 14.6133 15.1 15.72C14.4333 16.8133 13.52 17.6733 12.36 18.3C11.2 18.9267 9.89333 19.24 8.44 19.24ZM8.44 16.48C9.26667 16.48 10.0133 16.2933 10.68 15.92C11.3467 15.5333 11.8667 15 12.24 14.32C12.6267 13.64 12.82 12.8667 12.82 12C12.82 11.1333 12.6267 10.36 12.24 9.68C11.8667 9 11.3467 8.47333 10.68 8.1C10.0133 7.71333 9.26667 7.52 8.44 7.52C7.61333 7.52 6.86667 7.71333 6.2 8.1C5.53333 8.47333 5.00667 9 4.62 9.68C4.24667 10.36 4.06 11.1333 4.06 12C4.06 12.8667 4.24667 13.64 4.62 14.32C5.00667 15 5.53333 15.5333 6.2 15.92C6.86667 16.2933 7.61333 16.48 8.44 16.48ZM31.5597 16H25.0597L23.8197 19H20.4997L26.7397 5H29.9397L36.1997 19H32.7997L31.5597 16ZM30.5397 13.54L28.3197 8.18L26.0997 13.54H30.5397ZM54.4922 5V19H51.8322L44.8522 10.5V19H41.6522V5H44.3322L51.2922 13.5V5H54.4922ZM68.5045 19.24C67.0779 19.24 65.7845 18.9333 64.6245 18.32C63.4779 17.6933 62.5712 16.8333 61.9045 15.74C61.2512 14.6333 60.9245 13.3867 60.9245 12C60.9245 10.6133 61.2512 9.37333 61.9045 8.28C62.5712 7.17333 63.4779 6.31333 64.6245 5.7C65.7845 5.07333 67.0845 4.76 68.5245 4.76C69.7379 4.76 70.8312 4.97333 71.8045 5.4C72.7912 5.82667 73.6179 6.44 74.2845 7.24L72.2045 9.16C71.2579 8.06667 70.0845 7.52 68.6845 7.52C67.8179 7.52 67.0445 7.71333 66.3645 8.1C65.6845 8.47333 65.1512 9 64.7645 9.68C64.3912 10.36 64.2045 11.1333 64.2045 12C64.2045 12.8667 64.3912 13.64 64.7645 14.32C65.1512 15 65.6845 15.5333 66.3645 15.92C67.0445 16.2933 67.8179 16.48 68.6845 16.48C70.0845 16.48 71.2579 15.9267 72.2045 14.82L74.2845 16.74C73.6179 17.5533 72.7912 18.1733 71.8045 18.6C70.8179 19.0267 69.7179 19.24 68.5045 19.24ZM91.3125 16.4V19H80.4725V5H91.0525V7.6H83.6925V10.64H90.1925V13.16H83.6925V16.4H91.3125ZM107.11 16H100.61L99.3705 19H96.0505L102.29 5H105.49L111.75 19H108.35L107.11 16ZM106.09 13.54L103.87 8.18L101.65 13.54H106.09Z" fill="#F3F3F3"/>
<rect x="117" width="44" height="24" rx="4" fill="#2F80ED"/>
<path d="M124.49 4.78125V19H121.57V4.78125H124.49ZM137.375 16.7148V19H130.217V16.7148H137.375ZM131.164 4.78125V19H128.234V4.78125H131.164ZM143.17 4.78125V19H140.25V4.78125H143.17ZM156.455 16.7148V19H148.887V16.7148H156.455ZM149.844 4.78125V19H146.914V4.78125H149.844ZM155.469 10.5723V12.7988H148.887V10.5723H155.469ZM156.445 4.78125V7.07617H148.887V4.78125H156.445Z" fill="#F3F3F3"/>
</svg>
